<svg xmlns="http://www.w3.org/2000/svg" viewBox="0 0 12 14"><defs><linearGradient id="a" x1=".066%" x2="100%" y1="50%" y2="50%"><stop offset="0%" stop-color="#F73"/><stop offset="100%" stop-color="#FF2B00"/></linearGradient></defs><path fill="url(#a)" fill-rule="evenodd" d="M6.549.362a17.68 17.68 0 01-1.156 4.112c-.311-.628-.628-1.698-.68-2.397l-.02-.256-1.46 1.443C1.888 4.638 1.032 6.413 1.02 8.05h.002c0 3.28 2.666 5.94 5.958 5.95H7c3.076 0 5.698-2.347 5.955-5.4.262-3.108-1.796-5.594-1.796-5.594l-.07.592c-.125 1.059-.477 1.56-1.033 2.472C9.73 2.1 6.605 0 6.605 0l-.056.362z" transform="translate(-1)"/></svg>