<svg xmlns="http://www.w3.org/2000/svg" viewBox="0 0 12 14"><defs><linearGradient id="a" x1="0%" x2="100%" y1="50%" y2="50%"><stop offset="0%" stop-color="#FC3"/><stop offset="100%" stop-color="#FF9500"/></linearGradient></defs><path fill="url(#a)" fill-rule="evenodd" d="M5.238.131A.126.126 0 015.413.01l.014.007.65.38C6.97.92 7.682 1.67 8.195 2.63c.62 1.157.904 2.22.845 3.161a.092.092 0 00.032.075c.023.022.05.025.068.024a.099.099 0 00.064-.032c.314-.347.54-.7.672-1.046l.022-.061.205-.584a.128.128 0 01.192-.062l.013.01.458.418a5.43 5.43 0 011.775 4.008c0 .738-.146 1.453-.435 2.128a5.415 5.415 0 01-1.189 1.735 5.49 5.49 0 01-1.762 1.169A5.596 5.596 0 017 14a5.569 5.569 0 01-3.917-1.598 5.466 5.466 0 01-1.189-1.735 5.414 5.414 0 01.134-4.543 5.525 5.525 0 011.509-1.846l.07-.055c.274-.21.525-.452.748-.721a4.46 4.46 0 00.74-1.275c.134-.357.195-.781.181-1.26L5.273.884 5.238.13zm1.25 2.534l-.028.074a5.92 5.92 0 01-.983 1.695 6.12 6.12 0 01-.896.879l-.09.07a3.956 3.956 0 00-1.258 4.706 4.078 4.078 0 002.172 2.136A4.11 4.11 0 007 12.542a4.13 4.13 0 001.596-.316 4.052 4.052 0 001.3-.863 3.958 3.958 0 001.187-2.822 3.9 3.9 0 00-.54-1.994l-.006-.008-.014.019c-.056.07-.115.14-.175.209l-.062.07-.019.02a1.536 1.536 0 01-.996.485 1.53 1.53 0 01-1.113-.338l-.04-.034-.038-.035-.026-.024a1.555 1.555 0 01-.47-1.21c.04-.646-.174-1.448-.675-2.384a4.598 4.598 0 00-.4-.624l-.022-.028z" transform="translate(-1)"/></svg>