<?xml version="1.0" encoding="UTF-8"?>
<svg width="122px" height="36px" viewBox="0 0 122 36" version="1.1" xmlns="http://www.w3.org/2000/svg" xmlns:xlink="http://www.w3.org/1999/xlink">
    <title>品牌/子频道/户型库</title>
    <g id="页面-1" stroke="none" stroke-width="1" fill="none" fill-rule="evenodd">
        <g id="首页方案" transform="translate(-659.000000, -116.000000)" fill="#FFFFFF">
            <g id="品牌/子频道/户型库" transform="translate(659.000000, 116.000000)">
                <path d="M101.624319,6.72330119 L104.777353,7.96124617 L103.634979,10.8691169 L120.340456,10.8691169 L120.340456,14.2549664 L102.304542,14.2549664 L99.9197606,20.3306964 L100.083814,20.5726857 L106.579944,20.5726857 L106.579944,15.8368961 L109.967055,15.8368961 L109.967055,20.5726857 L119.176074,20.5726857 L119.176074,23.9585352 L109.967055,23.9585352 L109.967055,27.4563797 L121.999,27.4563797 L121.999,30.8422292 L109.967055,30.8422292 L109.967055,36 L106.579944,36 L106.579944,30.8422292 L94.5459987,30.8422292 L94.5459987,27.4563797 L106.579944,27.4563797 L106.579944,23.9585352 L100.083814,23.9585352 C98.905428,23.9585352 97.8030666,23.376561 97.1388488,22.4026043 C96.4975351,21.4603014 96.3467318,20.2737667 96.7242545,19.2048156 L96.7667268,19.0907515 L98.6653493,14.2549664 L94.5459987,14.2549664 L94.5459987,10.8691169 L99.9957855,10.8691169 L101.624319,6.72330119 Z M63.9149557,21.4748456 L63.9149557,24.5647082 L76.0809446,24.5647082 L76.0809446,27.9505578 L63.9149557,27.9505578 L63.9149557,31.7383894 L79.3720236,31.7383894 L79.3720236,35.1242389 L45.0687766,35.1242389 L45.0687766,31.7383894 L60.5278452,31.7383894 L60.5278452,27.9505578 L48.3618563,27.9505578 L48.3618563,24.5647082 L60.5278452,24.5647082 L60.5278452,21.4748456 L63.9149557,21.4748456 Z M107.925385,0 L107.925385,2.69388027 L122,2.69388027 L122,6.07972979 L93.5926861,6.07972979 C92.8511527,6.07972979 92.2426493,6.66409508 92.2041627,7.39781427 L92.2022302,7.47166793 L92.2022302,19.0271543 C92.2022302,24.0483912 90.9632278,27.9304406 89.7222011,30.5597585 L89.5762633,30.8633036 C89.5519636,30.9129289 89.5276818,30.9620708 89.5034272,31.0107286 L89.3583006,31.2968577 C89.334192,31.3435752 89.3101294,31.3898068 89.2861219,31.4355517 L89.1428136,31.7041725 L89.1428136,31.7041725 L89.001277,31.9610698 C88.9778601,32.0029067 88.9545357,32.0442535 88.931313,32.0851092 L88.7932733,32.3243441 L88.7932733,32.3243441 L88.6581243,32.5517527 L88.6581243,32.5517527 L88.5263137,32.7672939 L88.5263137,32.7672939 L88.398289,32.9709266 L88.398289,32.9709266 L88.2143298,33.2539575 L88.2143298,33.2539575 L88.0977283,33.4276393 L88.0977283,33.4276393 L87.9864793,33.5892689 L87.9864793,33.5892689 L87.8306209,33.8090254 L87.8306209,33.8090254 L87.6457214,34.0594676 L87.6457214,34.0594676 L87.5261887,34.2151948 L87.5261887,34.2151948 L87.3952064,34.3797612 L87.3952064,34.3797612 L87.2366022,34.5684636 L85.9701869,33.4425137 L84.6997704,32.3225634 L84.7490998,32.2635874 L84.7490998,32.2635874 L84.9026452,32.0677968 L84.9026452,32.0677968 L85.0307411,31.895253 L85.0307411,31.895253 L85.143692,31.7371815 L85.143692,31.7371815 L85.2263011,31.6182396 L85.2263011,31.6182396 L85.4073103,31.3480223 L85.4073103,31.3480223 L85.5049327,31.1968414 L85.5049327,31.1968414 L85.6067818,31.0350087 L85.6067818,31.0350087 L85.7124688,30.8625712 L85.7124688,30.8625712 L85.8216048,30.6795764 L85.8216048,30.6795764 L85.9338011,30.4860714 L85.9338011,30.4860714 L86.0486688,30.2821034 L86.0486688,30.2821034 L86.1658191,30.0677197 L86.1658191,30.0677197 L86.2848631,29.8429674 L86.2848631,29.8429674 L86.405412,29.6078939 L86.405412,29.6078939 L86.527077,29.3625464 L86.527077,29.3625464 L86.6494692,29.1069721 L86.6494692,29.1069721 L86.7721999,28.8412182 L86.7721999,28.8412182 L86.8948801,28.5653319 C86.915301,28.5185091 86.9357036,28.4712661 86.9560798,28.4236039 L87.0779554,28.1326077 C87.0981936,28.0832725 87.1183892,28.03352 87.138534,27.9833512 L87.25873,27.6773513 C88.0750259,25.5523246 88.7788529,22.7308434 88.8119058,19.2807231 L88.8131191,19.0271543 L88.8131191,7.47166793 C88.8131191,4.87454806 90.8952066,2.7569843 93.4767654,2.69526468 L93.5926861,2.69388027 L104.538275,2.69388027 L104.538275,0 L107.925385,0 Z M22.6854378,0.00159992889 L22.6854378,2.4434914 L32.4986553,2.4434914 C35.1032194,2.4434914 37.2297843,4.53153134 37.2908768,7.12264324 L37.292227,7.23727834 L37.292227,14.3389627 C37.292227,15.4654365 36.3999752,16.3841768 35.2854777,16.4272878 L35.2035421,16.4288698 L7.50245982,16.4288698 L7.50245982,19.0267544 C7.50245982,23.85108 6.35872863,27.6238143 5.16834992,30.2442543 L5.02243072,30.5593586 L5.02243072,30.5593586 L4.87649284,30.8629036 L4.87649284,30.8629036 L4.73098389,31.1548483 C4.70679301,31.2025368 4.68263865,31.2497402 4.65853014,31.2964578 L4.51450383,31.570925 L4.51450383,31.570925 L4.37202545,31.8336892 L4.37202545,31.8336892 L4.23154261,32.0847092 L4.23154261,32.0847092 L4.0935029,32.3239441 L4.0935029,32.3239441 L3.95835393,32.5513527 L3.95835393,32.5513527 L3.82654331,32.7668939 L3.82654331,32.7668939 L3.69851863,32.9705266 L3.69851863,32.9705266 L3.51455939,33.2535575 L3.51455939,33.2535575 L3.39795783,33.4272393 L3.39795783,33.4272393 L3.28670884,33.5888689 L3.28670884,33.5888689 L3.13085051,33.8086254 L3.13085051,33.8086254 L2.94595097,34.0590676 L2.94595097,34.0590676 L2.82641826,34.2147948 L2.82641826,34.2147948 L2.69543601,34.3793613 L2.69543601,34.3793613 L2.53683175,34.5680636 L-1.33363406e-14,32.3241634 L0.105465765,32.1947449 L0.105465765,32.1947449 L0.20287481,32.0687138 L0.20287481,32.0687138 L0.324914883,31.9043259 L0.324914883,31.9043259 L0.463392179,31.710003 L0.463392179,31.710003 L0.579852707,31.5405067 L0.579852707,31.5405067 L0.75003189,31.2830704 L0.75003189,31.2830704 L0.887541322,31.0665696 L0.887541322,31.0665696 L1.03240181,30.8301265 L1.03240181,30.8301265 L1.1836114,30.5738625 L1.1836114,30.5738625 L1.34016816,30.297899 L1.34016816,30.297899 L1.50107015,30.0023576 L1.50107015,30.0023576 L1.61025736,29.7945133 L1.61025736,29.7945133 L1.72063361,29.5780576 L1.72063361,29.5780576 L1.83190201,29.3530266 L1.83190201,29.3530266 L1.9437657,29.1194561 L1.9437657,29.1194561 L2.05592781,28.8773823 C2.07462987,28.83633 2.09333199,28.794925 2.11202799,28.7531678 L2.22408108,28.4984064 L2.22408108,28.4984064 L2.33569041,28.2352315 C2.35423849,28.1906699 2.37275571,28.1457592 2.39123589,28.1005003 L2.50162292,27.8247727 C2.51993018,27.7781235 2.53818802,27.7311275 2.55639027,27.6837854 L2.66488706,27.3955861 C2.68284217,27.3468628 2.70072931,27.2977949 2.71854229,27.2483832 L2.82448088,26.9477932 C2.84197251,26.8970092 2.85937761,26.8458829 2.87669001,26.7944151 L2.97940242,26.4815153 C2.99631925,26.4286842 3.013131,26.3755131 3.02983148,26.3220026 L3.12864976,25.9968741 C3.14488046,25.9420093 3.16098752,25.8868068 3.17696476,25.8312672 L3.27122095,25.4939908 C3.74965128,23.7305601 4.09143994,21.6446511 4.11233452,19.2585989 L4.11334864,19.0267544 L4.11334864,4.5313986 C4.11334864,3.40882945 5.00750688,2.48827626 6.12023412,2.44507677 L6.20203345,2.4434914 L19.2963267,2.4434914 L19.2963267,0.00159992889 L22.6854378,0.00159992889 Z M66.3321482,1.32254122 L66.3321482,4.71039065 L62.5148967,4.71039065 L62.5148967,10.7621217 L66.3321482,10.7621217 L66.3321482,14.1479712 L62.5148967,14.1479712 L62.5148967,18.8657615 L59.1277862,18.8657615 L59.1277862,14.1479712 L51.9714398,14.1479712 C51.4987662,16.4210018 50.4507885,18.2045941 49.3584861,19.5292744 L49.1810513,19.7400697 C49.1514421,19.7745334 49.1218214,19.8086631 49.0921998,19.8424594 L48.9145429,20.0412411 L48.9145429,20.0412411 L48.7373668,20.2320499 C48.7079055,20.2631885 48.6784852,20.2939962 48.6491164,20.3244735 L48.4736051,20.5033772 C48.4444841,20.5325353 48.4154356,20.5613642 48.38647,20.5898645 L48.2137556,20.7569282 L48.2137556,20.7569282 L48.0435347,20.9161347 L48.0435347,20.9161347 L47.8763105,21.067513 C47.8487175,21.0920919 47.8212703,21.1163459 47.7939794,21.1402755 L47.6321937,21.2799657 L47.6321937,21.2799657 L47.4746627,21.4118999 L47.4746627,21.4118999 L47.3218895,21.536107 L47.3218895,21.536107 L47.1743772,21.6526162 L47.1743772,21.6526162 L46.9640738,21.8130092 L46.9640738,21.8130092 L46.768438,21.9562443 L46.768438,21.9562443 L46.5891678,22.0824191 L46.5891678,22.0824191 L46.4279616,22.1916312 L46.4279616,22.1916312 L46.2440545,22.3110296 L46.2440545,22.3110296 L46.0428729,22.4344167 L46.0428729,22.4344167 L45.9434634,22.4916004 L45.1251951,21.0096662 L44.2989242,19.5317319 L44.4055663,19.4670586 L44.4055663,19.4670586 L44.5038564,19.4036786 L44.5038564,19.4036786 L44.6756856,19.2867865 L44.6756856,19.2867865 L44.8317591,19.1747172 L44.8317591,19.1747172 L44.9473126,19.0883377 L44.9473126,19.0883377 L45.0711684,18.9925951 L45.0711684,18.9925951 L45.2025538,18.8874643 L45.2025538,18.8874643 L45.3406963,18.7729197 L45.3406963,18.7729197 L45.4848232,18.648936 L45.4848232,18.648936 L45.6341619,18.5154878 L45.6341619,18.5154878 L45.7879399,18.3725498 C45.8138965,18.3479345 45.840006,18.3229228 45.8662521,18.2975141 L46.0252402,18.1402938 L46.0252402,18.1402938 L46.1867361,17.9735201 C46.9991969,17.1157262 47.8767242,15.8987321 48.3847276,14.3082635 L48.4342801,14.1479712 L45.027163,14.1479712 L45.027163,10.7621217 L48.8444146,10.7621217 L48.8444146,4.71039065 L45.027163,4.71039065 L45.027163,1.32254122 L66.3321482,1.32254122 Z M79.3144047,1.3185414 L79.3144047,16.5018666 C79.3144047,19.7061632 76.7375575,22.3191764 73.5469235,22.3824319 L73.4284749,22.3836052 L73.1363791,22.3836052 L73.1363791,18.9977557 L73.4284749,18.9977557 C74.7775981,18.9977557 75.8795022,17.9249559 75.925781,16.5893365 L75.9272942,16.5018666 L75.9272942,1.3185414 L79.3144047,1.3185414 Z M72.300105,1.3185414 L72.300105,16.0138883 L68.9129944,16.0138883 L68.9129944,1.3185414 L72.300105,1.3185414 Z M32.4986553,5.83134083 L7.50245982,5.83134083 L7.50245982,13.0430203 L33.9051164,13.0430203 L33.9051164,7.23727834 C33.9051164,6.48634398 33.3149125,5.8721361 32.5733045,5.8332912 L32.4986553,5.83134083 Z M59.1257855,4.71039065 L52.2315251,4.71039065 L52.2315251,10.7621217 L59.1257855,10.7621217 L59.1257855,4.71039065 Z" id="形状"></path>
            </g>
        </g>
    </g>
</svg>