<?xml version="1.0" standalone="no"?><!DOCTYPE svg PUBLIC "-//W3C//DTD SVG 1.1//EN" "http://www.w3.org/Graphics/SVG/1.1/DTD/svg11.dtd"><svg t="1718645039414" class="icon" viewBox="0 0 1024 1024" version="1.1" xmlns="http://www.w3.org/2000/svg" p-id="3442" xmlns:xlink="http://www.w3.org/1999/xlink" width="200" height="200"><path d="M257.621556 147.437223m53.622231 0l411.310624 0q53.622231 0 53.622231 53.622231l0 622.816414q0 53.622231-53.622231 53.622231l-411.310624 0q-53.622231 0-53.622231-53.622231l0-622.816414q0-53.622231 53.622231-53.622231Z" fill="#59BCA6" opacity=".6" p-id="3443"></path><path d="M225.406846 763.783896a6.504868 6.504868 0 0 1-6.504868-6.504869V169.457503a57.531657 57.531657 0 0 1 57.466608-57.467909h99.886155a6.504868 6.504868 0 0 1 0 13.009736h-99.886155a44.50891 44.50891 0 0 0-44.456871 44.458173V757.279027a6.504868 6.504868 0 0 1-6.504869 6.504869z" p-id="3444"></path><path d="M706.482182 871.046571H273.606619a55.085826 55.085826 0 0 1-55.022078-55.02338v-38.674043a6.504868 6.504868 0 0 1 13.009736 0v38.675344a42.061779 42.061779 0 0 0 42.012342 42.012342h432.875563a42.060478 42.060478 0 0 0 42.012342-42.013643V167.011672a42.059177 42.059177 0 0 0-42.012342-42.012342H397.809272a6.504868 6.504868 0 0 1 0-13.009736h308.67291a55.084525 55.084525 0 0 1 55.022079 55.022078v649.01282a55.084525 55.084525 0 0 1-55.022079 55.022079z" p-id="3445"></path><path d="M406.831524 124.99933h-11.775112a6.504868 6.504868 0 0 1 0-13.009736h11.775112a6.504868 6.504868 0 0 1 0 13.009736z" p-id="3446"></path><path d="M345.595996 266.970681h-10.762955l-20.887132-31.903776a37.326235 37.326235 0 0 1-2.356063-4.012203h-0.158719a77.549738 77.549738 0 0 1 0.286214 7.864386v28.051593h-9.966759v-49.321211h11.461578l20.124761 31.011308q2.006101 3.08721 2.452335 3.915931h0.158719a46.844158 46.844158 0 0 1-0.318738-6.8145v-28.112739h9.966759zM353.969062 242.963815q0-11.590374 6.765063-18.864118t17.879281-7.275045q10.571712 0 17.018036 7.036967t6.447626 18.083533q0 11.525326-6.702617 18.705399t-17.563144 7.180074a22.70199 22.70199 0 0 1-17.226192-6.957607q-6.618053-6.956306-6.618053-17.909203z m11.049169-0.57373a18.908351 18.908351 0 0 0 3.470998 11.764705 11.298956 11.298956 0 0 0 9.520525 4.57032 11.53183 11.53183 0 0 0 9.615496-4.379077q3.438473-4.376475 3.439775-11.764705 0-7.704366-3.343503-12.178414a11.081694 11.081694 0 0 0-9.425554-4.474048 11.630704 11.630704 0 0 0-9.72738 4.584631 18.851108 18.851108 0 0 0-3.550357 11.876588zM457.96109 226.247604h-17.607378v12.671484h16.206229v8.596834h-16.206229v19.454759h-10.507964v-49.321211h28.115342zM463.151974 242.963815q0-11.590374 6.765063-18.864118t17.879281-7.275045q10.571712 0 17.019338 7.036967t6.447625 18.083533q0 11.525326-6.702616 18.705399t-17.563145 7.180074a22.703291 22.703291 0 0 1-17.226192-6.957607q-6.620655-6.956306-6.619354-17.909203z m11.047869-0.57373a18.908351 18.908351 0 0 0 3.470997 11.764705 11.300257 11.300257 0 0 0 9.520526 4.57032 11.53183 11.53183 0 0 0 9.615496-4.379077q3.438473-4.376475 3.439774-11.764705 0-7.704366-3.343502-12.178414a11.077791 11.077791 0 0 0-9.425554-4.474048 11.632005 11.632005 0 0 0-9.72738 4.584631 18.851108 18.851108 0 0 0-3.550357 11.876588zM559.405811 245.764811q0 22.067115-20.504646 22.065814-19.804722 0-19.804722-21.492085v-28.68907h10.537887v28.751517q0 12.321521 9.711768 12.322822 9.551749 0 9.551749-11.876588v-29.197751h10.506663zM614.076626 266.970681h-10.761654l-20.885831-31.903776a37.427711 37.427711 0 0 1-2.358665-4.012203h-0.158719a77.640806 77.640806 0 0 1 0.284914 7.864386v28.051593h-9.965459v-49.321211h11.461578l20.126063 31.011308q2.0048 3.08721 2.452335 3.915931H604.431208a46.591769 46.591769 0 0 1-0.32004-6.8145v-28.112739h9.965458zM625.539505 266.970681v-49.321211h17.034949q26.26926 0 26.26926 24.040692 0 11.430354-7.355705 18.355437t-18.977303 6.925082z m10.509265-40.720475v32.127545h5.724284q7.481899 0 11.749093-4.458437t4.265893-12.067832q0-7.355705-4.457136-11.47849a16.392268 16.392268 0 0 0-11.590374-4.122786z" fill="#FFFFFF" p-id="3447"></path><path d="M406.830223 325.623777m34.023063 0l270.76514 0q34.023063 0 34.023063 34.023063l0-0.001301q0 34.023063-34.023063 34.023063l-270.76514 0q-34.023063 0-34.023063-34.023063l0 0.001301q0-34.023063 34.023063-34.023063Z" fill="#59BCA6" p-id="3448"></path><path d="M276.28012 431.222507m32.390341 0l257.772316 0q32.390341 0 32.390341 32.390341l0-0.001301q0 32.390341-32.390341 32.390341l-257.772316 0q-32.390341 0-32.390341-32.390341l0 0.001301q0-32.390341 32.390341-32.390341Z" fill="#59BCA6" p-id="3449"></path><path d="M317.563917 360.599153m-34.054287 0a34.054286 34.054286 0 1 0 68.108573 0 34.054286 34.054286 0 1 0-68.108573 0Z" fill="#59BCA6" p-id="3450"></path><path d="M294.370158 566.904952m51.475625 0l326.71091 0q51.475624 0 51.475624 51.475624l0 87.859954q0 51.475624-51.475624 51.475625l-326.71091 0q-51.475624 0-51.475625-51.475625l0-87.859954q0-51.475624 51.475625-51.475624Z" fill="#59BCA6" p-id="3451"></path><path d="M882.38813 804.006098a19.017633 19.017633 0 0 1-26.917145 0l-47.027595-47.027595 26.917145-26.930155 47.027595 47.028896a19.038448 19.038448 0 0 1 0 26.928854z" fill="#4497D3" p-id="3452"></path><path d="M835.359234 730.049649l-26.917145 26.930155-11.673636-11.673637a19.037147 19.037147 0 1 1 26.930154-26.915844z" fill="#F4D37D" opacity=".8" p-id="3453"></path><path d="M868.924354 816.086939a25.368986 25.368986 0 0 1-18.061417-7.481899l-58.696028-58.696028a25.543317 25.543317 0 1 1 36.122834-36.122835l58.696028 58.696028a25.543317 25.543317 0 0 1-18.061417 43.604734z m-58.697329-96.774225a12.53358 12.53358 0 0 0-8.862233 21.397113l58.696028 58.697329a12.534881 12.534881 0 1 0 17.727067-17.725766L819.091859 722.984061a12.459425 12.459425 0 0 0-8.864834-3.671347z" p-id="3454"></path><path d="M691.228266 437.900405a169.725022 169.725022 0 1 0 169.725022 169.725022 169.721119 169.721119 0 0 0-169.725022-169.725022z m0 303.583501a133.85978 133.85978 0 1 1 133.846771-133.858479 133.861081 133.861081 0 0 1-133.846771 133.858479z" fill="#F4D37D" p-id="3455"></path><path d="M781.444284 508.419681a133.541042 133.541042 0 1 1-18.205825-13.874883" fill="#FFFFFF" opacity=".3" p-id="3456"></path><path d="M691.575626 747.987474a140.363348 140.363348 0 1 1 75.155947-258.932785 6.504868 6.504868 0 1 1-6.97452 10.981518 127.53965 127.53965 0 1 0 17.323765 13.202281 6.504868 6.504868 0 1 1 8.73864-9.638914 140.363348 140.363348 0 0 1-94.238628 244.3879z" opacity=".3" p-id="3457"></path><path d="M781.441682 514.92455a6.481451 6.481451 0 0 1-4.366068-1.691266 128.350157 128.350157 0 0 0-17.323765-13.202281 6.504868 6.504868 0 0 1 6.97452-10.981518 141.35469 141.35469 0 0 1 19.087885 14.544885 6.504868 6.504868 0 0 1-4.372572 11.318471zM620.992602 768.529848a6.474946 6.474946 0 0 1-2.703423-0.591943 176.776299 176.776299 0 0 1-102.943443-160.31508c0-97.173625 79.056266-176.22989 176.22989-176.22989a177.484029 177.484029 0 0 1 35.508775 3.580279 6.506169 6.506169 0 1 1-2.601947 12.749542 163.264387 163.264387 0 0 0-100.773419 308.390599 6.504868 6.504868 0 0 1-2.711229 12.420395zM691.575626 783.855317a176.036045 176.036045 0 0 1-55.031185-8.767261 6.504868 6.504868 0 1 1 4.060339-12.35925A163.272193 163.272193 0 0 0 826.94974 516.401155a6.504868 6.504868 0 1 1 10.781169-7.285453 175.359539 175.359539 0 0 1 30.075909 98.498016c0 97.185333-79.056266 176.241599-176.231192 176.241599zM818.147352 501.049666a6.487956 6.487956 0 0 1-4.85133-2.170024 163.645572 163.645572 0 0 0-69.144148-45.821593 6.504868 6.504868 0 0 1 4.187835-12.317619A176.693037 176.693037 0 0 1 822.99478 490.208652a6.504868 6.504868 0 0 1-4.847428 10.841014z" p-id="3458"></path><path d="M621.741963 567.529419a14.815488 14.815488 0 0 1-1.109731 16.511958 32.4697 32.4697 0 0 0-3.342201 34.285859 14.808983 14.808983 0 0 1-26.478716 13.269931 62.235977 62.235977 0 0 1 6.426809-65.710878 14.819391 14.819391 0 0 1 24.509043 1.647033z" fill="#FFFFFF" opacity=".8" p-id="3459"></path><path d="M606.86663 640.977187a21.360686 21.360686 0 0 1-19.073574-11.781617 68.772069 68.772069 0 0 1 7.105918-72.60864 21.31255 21.31255 0 1 1 33.670499 26.13656 25.927104 25.927104 0 0 0-2.664394 27.381593 21.335968 21.335968 0 0 1-19.038449 30.872104z m4.87735-79.619587a8.289804 8.289804 0 0 0-6.567314 3.2069 55.701187 55.701187 0 0 0-5.750304 58.804009 8.302814 8.302814 0 0 0 14.84541-7.438967 39.008394 39.008394 0 0 1 4.020009-41.186224 8.274192 8.274192 0 0 0 0.627069-9.262932 8.308018 8.308018 0 0 0-7.173569-4.12799z" p-id="3460"></path><path d="M691.221762 747.987474a140.363348 140.363348 0 1 1 75.149441-258.932785 6.504868 6.504868 0 1 1-6.974519 10.981518 127.527942 127.527942 0 1 0 17.325066 13.202281 6.504868 6.504868 0 1 1 8.737339-9.638914 140.363348 140.363348 0 0 1-94.237327 244.3879z" p-id="3461"></path><path d="M880.994787 89.524381a26.171687 26.171687 0 1 0 26.174289 26.176891 26.172988 26.172988 0 0 0-26.174289-26.176891z m0 45.117766a18.946079 18.946079 0 1 1 18.947381-18.940875 18.94738 18.94738 0 0 1-18.947381 18.940875z" fill="#F4D37D" p-id="3462"></path><path d="M822.871188 22.426665l-5.797139 4.840923-2.270199 7.203491-4.840923-5.797138-7.203491-2.270199 5.797139-4.840923 2.270199-7.203492 4.840923 5.79844 7.203491 2.268898z" fill="#59BCA6" p-id="3463"></path><path d="M975.368717 175.942856m-9.923827 0a9.923827 9.923827 0 1 0 19.847654 0 9.923827 9.923827 0 1 0-19.847654 0Z" fill="#59BCA6" opacity=".6" p-id="3464"></path><path d="M729.84897 10.049202m-9.923827 0a9.923827 9.923827 0 1 0 19.847654 0 9.923827 9.923827 0 1 0-19.847654 0Z" fill="#F4D37D" p-id="3465"></path><path d="M831.808877 191.970852a13.086494 13.086494 0 1 0 13.086494 13.085193 13.087795 13.087795 0 0 0-13.086494-13.085193z m0 22.558883a9.472389 9.472389 0 1 1 9.47369-9.47369 9.47369 9.47369 0 0 1-9.47369 9.47369z" fill="#59BCA6" opacity=".6" p-id="3466"></path><path d="M926.800769 236.148014l-11.318471 9.451573-4.431116 14.064826-9.451574-11.31847-14.064826-4.431117 11.319772-9.451573 4.431116-14.064826 9.450272 11.318471 14.064827 4.431116z" fill="#59BCA6" p-id="3467"></path><path d="M54.931163 813.058273a16.42219 16.42219 0 1 0 16.429996 16.420889 16.423491 16.423491 0 0 0-16.429996-16.420889z m0 28.310487a11.888297 11.888297 0 1 1 11.889598-11.889598 11.889598 11.889598 0 0 1-11.889598 11.889598z" fill="#59BCA6" opacity=".6" p-id="3468"></path><path d="M106.752846 730.113397l-11.594277 9.681846-4.539097 14.406982-9.681846-11.595578-14.406982-4.537796 11.594277-9.681846 4.539097-14.406982 9.681846 11.594277 14.406982 4.539097zM163.402442 870.204841a11.881792 11.881792 0 1 0 11.883094 11.880491 11.881792 11.881792 0 0 0-11.883094-11.880491z m0 20.482529a8.602038 8.602038 0 1 1 8.602038-8.602038 8.602038 8.602038 0 0 1-8.602038 8.605941z" fill="#F4D37D" p-id="3469"></path><path d="M155.75662 797.129151m-7.645822 0a7.645822 7.645822 0 1 0 15.291644 0 7.645822 7.645822 0 1 0-15.291644 0Z" fill="#59BCA6" opacity=".6" p-id="3470"></path><path d="M115.177951 933.450374l-5.475798 9.236913 0.374681 10.73043-9.236913-5.474497-10.731732 0.37338 5.475798-9.236913-0.37468-10.730431 9.236913 5.474497 10.731731-0.373379z" fill="#59BCA6" p-id="3471"></path><path d="M218.809609 995.567963a279.890169 28.345614 0 1 0 559.780339 0 279.890169 28.345614 0 1 0-559.780339 0Z" fill="#59BCA6" opacity=".6" p-id="3472"></path></svg>